PathFileType	4	(X/Y/Z)	TVC_32_BWA_08_walk_RCNL2025.trc
DataRate	CameraRate	NumFrames	NumMarkers	Units	OrigDataRate	OrigDataStartFrame	OrigNumFrames
100	100	12	27	mm	100	55	436
Frame#	Time	R_Shoulder			L_Shoulder			C7			J_Notch			R_Elbow			L_Elbow			R_Wrist			L_Wrist			R_Asis			L_Asis			R_Psis			L_Psis			Sacral			Thoracic			Sternum			R_Thigh_Lateral			R_Knee_Lateral			R_Shank_Lateral			R_Ankle_Lateral			R_Heel			R_Toe			L_Thigh_Lateral			L_Knee_Lateral			L_Shank_Lateral			L_Ankle_Lateral			L_Heel			L_Toe		
		X1	Y1	Z1	X2	Y2	Z2	X3	Y3	Z3	X4	Y4	Z4	X5	Y5	Z5	X6	Y6	Z6	X7	Y7	Z7	X8	Y8	Z8	X9	Y9	Z9	X10	Y10	Z10	X11	Y11	Z11	X12	Y12	Z12	X13	Y13	Z13	X14	Y14	Z14	X15	Y15	Z15	X16	Y16	Z16	X17	Y17	Z17	X18	Y18	Z18	X19	Y19	Z19	X20	Y20	Z20	X21	Y21	Z21	X22	Y22	Z22	X23	Y23	Z23	X24	Y24	Z24	X25	Y25	Z25	X26	Y26	Z26	X27	Y27	Z27
55	0.54000000	-1596.327637	1463.148438	489.069183	-1655.212524	1428.358887	116.599251	-1680.579712	1499.818359	308.241821	-1521.571899	1407.651123	298.216187	-1511.224487	1130.376221	616.968384	-1767.429443	1110.840942	50.998924	-1354.104675	913.103699	550.571991	-1726.357361	841.148346	87.170382	-1580.157471	994.146667	469.654602	-1562.840210	1003.256653	186.292160	-1764.825439	1012.868469	366.502197	-1755.165527	1008.366272	265.224243	-1759.995483	1010.617371	315.863220	-1747.375122	1237.994385	322.551849	-1493.316650	1258.678345	311.078339	-1743.384521	628.039246	518.113403	-1728.838379	482.876648	465.016846	-1874.243896	323.947845	497.653625	-1972.235718	134.100922	409.555725	-2027.865723	137.631348	340.689941	-1859.295410	43.124454	404.183990	-1571.813843	656.665710	119.566666	-1519.923584	501.057312	188.050369	-1513.187500	339.741394	125.452614	-1427.617065	74.612480	191.245285	-1494.966553	59.078835	239.788269	-1285.315918	44.200607	224.310608
56	0.55000000	-1587.736816	1465.086670	486.834503	-1645.574341	1429.581299	114.190521	-1671.611572	1501.337646	305.663513	-1512.596191	1409.630005	296.006104	-1507.046143	1131.301392	615.601562	-1754.961426	1110.941895	47.695755	-1352.335327	911.899506	550.574280	-1712.552063	841.459625	83.622547	-1570.969238	995.663208	467.193329	-1554.576538	1005.117126	184.085754	-1755.949951	1014.501831	364.894135	-1746.503540	1010.287476	263.547882	-1751.226746	1012.394653	314.221008	-1738.409302	1239.528564	320.648926	-1484.128906	1260.376709	309.149994	-1732.503540	629.296265	518.778809	-1717.030396	483.802643	467.355103	-1866.021362	328.113861	499.043854	-1966.924316	139.858231	410.746857	-2021.576294	145.758820	341.649902	-1858.531006	43.321686	404.334656	-1566.181885	657.777832	118.287910	-1516.298096	501.663666	187.073853	-1510.576904	340.131561	124.631325	-1427.187134	74.651649	191.318466	-1494.574463	59.343990	239.823212	-1284.842773	43.591293	224.281479
57	0.56000000	-1579.080444	1466.964111	484.599091	-1635.928711	1430.879517	111.805817	-1662.611938	1502.876709	303.137665	-1503.562500	1411.559204	293.824219	-1503.033691	1132.172119	614.220154	-1742.298706	1111.067383	44.325237	-1350.904053	910.556915	550.604919	-1698.429871	841.808197	79.895929	-1561.901978	997.268677	464.695648	-1546.477051	1006.935242	181.846130	-1747.211182	1016.161011	363.299255	-1737.987671	1012.185059	261.884430	-1742.599426	1014.173035	312.591843	-1729.531738	1241.108887	318.707764	-1475.016846	1262.027344	307.172699	-1720.888306	630.416809	519.713379	-1704.287842	484.685059	469.992828	-1856.944458	332.430511	500.502930	-1960.824951	146.010223	411.819244	-2014.264282	154.393570	342.424408	-1857.582886	43.762348	404.481964	-1560.454956	658.958984	117.019394	-1512.593872	502.324707	186.080215	-1508.006958	340.561951	123.805649	-1426.881836	74.716942	191.429916	-1494.293091	59.542725	239.877747	-1284.502930	43.245331	224.321060
58	0.57000000	-1570.384277	1468.737305	482.373383	-1626.281982	1432.220337	109.446671	-1653.604614	1504.400879	300.669067	-1494.499634	1413.394653	291.682434	-1499.171265	1132.966553	612.829895	-1729.448364	1111.193604	40.896458	-1349.795227	909.070251	550.651917	-1684.007446	842.172607	76.018711	-1552.989014	998.927917	462.193115	-1538.519043	1008.660889	179.602905	-1738.626343	1017.809204	361.710083	-1729.624756	1014.023804	260.227692	-1734.125549	1015.916504	310.968887	-1720.758179	1242.700073	316.718384	-1465.997803	1263.596802	305.158142	-1708.546265	631.374756	520.903992	-1690.627686	485.517426	472.881409	-1846.972412	336.857330	502.010162	-1953.887085	152.535309	412.748322	-2005.893311	163.479294	342.994049	-1856.357788	44.518005	404.635437	-1554.731079	660.149902	115.772202	-1508.874878	502.994537	185.086792	-1505.506226	341.003510	122.990829	-1426.676270	74.792053	191.570053	-1494.103027	59.682545	239.948578	-1284.272583	43.090672	224.414429
59	0.58000000	-1561.676025	1470.366577	480.169556	-1616.638794	1433.569092	107.113960	-1644.612915	1505.877441	298.260559	-1485.437988	1415.094971	289.592896	-1495.441772	1133.664307	611.436462	-1716.416748	1111.296631	37.417950	-1348.989258	907.436096	550.704742	-1669.300110	842.531372	72.019047	-1544.258667	1000.601990	459.719543	-1530.680054	1010.250732	177.385635	-1730.209595	1019.407654	360.122070	-1721.420532	1015.771301	258.574677	-1725.815063	1017.589478	309.348373	-1712.102783	1244.268677	314.675934	-1457.087769	1265.052979	303.119904	-1695.503784	632.152344	522.324158	-1676.087036	486.299194	475.958618	-1836.077026	341.348602	503.544525	-1946.069946	159.398056	413.517548	-1996.451538	172.938828	343.352417	-1854.735352	45.657158	404.806213	-1549.105835	661.299683	114.555893	-1505.204590	503.635254	184.108688	-1503.101685	341.432678	122.200294	-1426.546265	74.866646	191.729111	-1493.983643	59.774670	240.032120	-1284.127197	43.062683	224.545792
60	0.59000000	-1552.984619	1471.817383	478.001160	-1607.003418	1434.890991	104.808365	-1635.659302	1507.277466	295.913269	-1476.407104	1416.623413	287.567474	-1491.828003	1134.247314	610.044800	-1703.210083	1111.354004	33.898014	-1348.463806	905.653961	550.754730	-1654.321594	842.864410	67.924231	-1535.733765	1002.250061	457.308777	-1522.941284	1011.670593	175.221970	-1721.971680	1020.918091	358.534607	-1713.380493	1017.400452	256.926758	-1717.676086	1019.159271	307.730682	-1703.577881	1245.785522	312.581757	-1448.301025	1266.367798	301.073059	-1681.807739	632.742432	523.934082	-1660.721191	487.036560	479.151703	-1824.245728	345.854767	505.084900	-1937.343750	166.547653	414.119232	-1985.953003	182.674149	343.506744	-1852.568726	47.238945	405.005676	-1543.661743	662.368774	113.378212	-1501.639160	504.218262	183.158218	-1500.816895	341.831451	121.445244	-1426.470459	74.935181	191.897888	-1493.915649	59.831577	240.124817	-1284.044067	43.107250	224.700317
61	0.60000000	-1544.338745	1473.063477	475.882690	-1597.379395	1436.153320	102.530960	-1626.764038	1508.577515	293.627136	-1467.435791	1417.950806	285.617371	-1488.314087	1134.701782	608.659058	-1689.833496	1111.346680	30.345158	-1348.194946	903.726990	550.795624	-1639.083374	843.154419	63.760044	-1527.430542	1003.831665	454.992645	-1515.289429	1012.897339	173.135681	-1713.919434	1022.305481	356.951569	-1705.509277	1018.890930	255.289886	-1709.714355	1020.598206	306.120728	-1695.193115	1247.227051	310.443878	-1439.650024	1267.518433	299.033691	-1667.524292	633.149536	525.682251	-1644.602661	487.742615	482.381683	-1811.482666	350.324799	506.610321	-1927.690186	173.917236	414.554535	-1974.435669	192.567917	343.477203	-1849.688354	49.306602	405.243408	-1538.460938	663.330811	112.244904	-1498.223145	504.725311	182.244522	-1498.669678	342.187927	120.734177	-1426.431641	74.995575	192.068359	-1493.882324	59.865181	240.223160	-1284.003662	43.182362	224.865173
62	0.61000000	-1535.766113	1474.088013	473.828674	-1587.771484	1437.327026	100.283775	-1617.945190	1509.761230	291.401428	-1458.550171	1419.057739	283.752350	-1484.886230	1135.018677	607.282227	-1676.291260	1111.259521	26.768566	-1348.158447	901.662842	550.823425	-1623.594666	843.388306	59.550311	-1519.358032	1005.308533	452.798859	-1507.718506	1013.920288	171.145111	-1706.056030	1023.541260	355.381439	-1697.811035	1020.230408	253.674759	-1701.933533	1021.885834	304.528099	-1686.956177	1248.576050	308.276886	-1431.145020	1268.489746	297.018188	-1652.737061	633.389832	527.507812	-1627.817749	488.437012	485.567780	-1797.809326	354.707916	508.100128	-1917.102417	181.423874	414.832672	-1961.959595	202.486221	343.294952	-1845.908569	51.881409	405.525177	-1533.539551	664.172668	111.159630	-1494.985229	505.148132	181.373367	-1496.670288	342.496033	120.072632	-1426.416870	75.047829	192.233871	-1493.870850	59.885693	240.323807	-1283.990479	43.258224	225.030106
63	0.62000000	-1527.292114	1474.885254	471.852966	-1578.185425	1438.388794	98.070259	-1609.217651	1510.819580	289.235260	-1449.773193	1419.935547	281.980255	-1481.534058	1135.195679	605.916138	-1662.587280	1111.083740	23.178530	-1348.331360	899.474030	550.836334	-1607.862732	843.558533	55.316734	-1511.518066	1006.647705	450.749146	-1500.230469	1014.741455	169.262024	-1698.380615	1024.605225	353.837158	-1690.289062	1021.415405	252.096176	-1694.334839	1023.010315	302.966667	-1678.871948	1249.822876	306.101166	-1422.793823	1269.274658	295.042633	-1637.542725	633.490906	529.344238	-1610.462280	489.144989	488.632141	-1783.264404	358.955658	509.534058	-1905.584961	188.969650	414.969666	-1948.601929	212.282532	342.999542	-1841.036011	54.957748	405.850739	-1528.906128	664.893799	110.124107	-1491.936401	505.487610	180.547302	-1494.819580	342.755280	119.463135	-1426.417114	75.092873	192.389267	-1493.871948	59.901100	240.423508	-1283.993408	43.316231	225.187469
64	0.63000000	-1518.938843	1475.460693	469.967865	-1568.629028	1439.322021	95.895592	-1600.593018	1511.751099	287.128143	-1441.123901	1420.587036	280.306366	-1478.251099	1135.236938	604.561462	-1648.724976	1110.817261	19.586809	-1348.692505	897.178436	550.834564	-1591.893921	843.664337	51.078923	-1503.905396	1007.823181	448.857819	-1492.834229	1015.375061	167.491028	-1690.888306	1025.487549	352.335052	-1682.945068	1022.450439	250.571930	-1686.916687	1023.968994	301.453491	-1670.942627	1250.964722	303.941498	-1414.601562	1269.875244	293.122284	-1622.045898	633.489502	531.123413	-1592.638550	489.895966	491.503784	-1767.901733	363.023315	510.892365	-1893.151978	196.443542	414.986511	-1934.451050	221.802505	342.635345	-1834.880493	58.500019	406.211975	-1524.543213	665.504211	109.138390	-1489.070801	505.752167	179.765961	-1493.108643	342.970215	118.905373	-1426.426514	75.131653	192.530823	-1493.879639	59.917168	240.519150	-1284.005249	43.347160	225.332092
65	0.64000000	-1510.723877	1475.830566	468.183411	-1559.112305	1440.117432	93.766785	-1592.079956	1512.561646	285.080261	-1432.617432	1421.027100	278.733154	-1475.034668	1135.153564	603.217896	-1634.708862	1110.465576	16.006853	-1349.223572	894.799194	550.819916	-1575.693848	843.712402	46.854661	-1496.508667	1008.818298	447.131012	-1485.544922	1015.845642	165.829681	-1683.570923	1026.189331	350.893707	-1675.779175	1023.347290	249.121490	-1679.675049	1024.768311	300.007599	-1663.168335	1252.005249	301.825348	-1406.570923	1270.301636	291.270874	-1606.352173	633.429138	532.780273	-1574.450073	490.721588	494.122040	-1751.787842	366.870636	512.156189	-1879.826172	203.724350	414.907288	-1919.601196	230.889374	342.248169	-1827.265991	62.441826	406.592194	-1520.412354	666.021606	108.201271	-1486.366821	505.955902	179.026688	-1491.518921	343.149139	118.396698	-1426.441162	75.164604	192.656189	-1493.890747	59.937748	240.607803	-1284.021606	43.348949	225.460800
66	0.65000000	-1502.660889	1476.020630	466.506775	-1549.647827	1440.773560	91.692551	-1583.684326	1513.262207	283.092773	-1424.265015	1421.280640	277.259918	-1471.886108	1134.963867	601.884705	-1620.544556	1110.041626	12.453807	-1349.909180	892.364655	550.795013	-1559.268494	843.717224	42.660269	-1489.310547	1009.626770	445.566559	-1478.380981	1016.185791	164.269226	-1676.416992	1026.721924	349.532654	-1668.788818	1024.123169	247.764221	-1672.602905	1025.422546	298.648438	-1655.546265	1252.953125	299.780853	-1398.701416	1270.571533	289.500366	-1590.563232	633.356934	534.256958	-1555.999023	491.653809	496.438599	-1734.998291	370.462036	513.307983	-1865.637085	210.684235	414.756989	-1904.145630	239.389374	341.881409	-1818.041626	66.687737	406.965912	-1516.460205	666.468323	107.310760	-1483.790649	506.116241	178.325241	-1490.024048	343.303040	117.932770	-1426.458008	75.191444	192.764267	-1493.904175	59.965244	240.686859	-1284.040649	43.324417	225.571976
